<svg xmlns="http://www.w3.org/2000/svg" xmlns:xlink="http://www.w3.org/1999/xlink" width="674.05" height="235.019"><defs><path id="a" d="M387.441-281.275v-.256l5.641-28.21s-12.537-28.837-54.537-25.389c-42.002 3.448-47.33 13.165-54.226 24.762l4.074 18.493-7.836 5.015s-2.821-8.463-7.209-8.776c0 0 6.582-9.403 1.881-15.985-4.702-6.583-29.777-5.956-39.494 27.269 0 0-1.253-10.03-5.328-10.03s-19.12 5.329-15.045 21c4.074 15.672 18.18 20.374 22.881 22.254 0 0 2.193 2.821 1.254 6.582-.494 1.975-11.868 37.133-2.368 69.633 7.095 24.27 29.774 45.357 29.774 45.357 17.322 16.523 40.693 26.658 66.413 26.658 53.395 0 96.688-43.67 96.688-97.545-.001-33.635-16.883-63.297-42.563-80.832z"/></defs><clipPath id="b"><use xlink:href="#a" overflow="visible"/></clipPath><g clip-path="url(#b)"><ellipse fill="#D1D1D1" cx="339.029" cy="33.125" rx="89.265" ry="7.443"/><path d="M258.488-76.548l76.568 98.746s2.994 1.07 4.277-.428v-98.318h-80.845zm76.568 98.746l-15.398 10.052v2.139h19.891l-.215-12.619c-.001 0-2.137-2.352-4.278.428zm84.514-98.746l-76.57 98.746s-2.992 1.07-4.277-.428v-98.318h80.847zm-76.57 98.746l15.4 10.053v2.139h-19.891l.213-12.619c0-.001 2.139-2.353 4.278.427z" fill="#050505"/><path fill="#191919" d="M339.027 21.465c.447-5.318.717-12.174.717-19.658s-.27-14.338-.717-19.66c-.445 5.322-.713 12.176-.713 19.66s.268 14.34.713 19.658z"/></g><g fill="#050505"><path d="M277.458 118.176h6.648l-11.687 14.47-11.784-14.47h6.691v-6.541h-25.176v6.541h9.977l16.804 20.663v12.912h-9.762v6.561h26.481v-6.561h-9.769v-12.912l16.81-20.663h9.945v-6.541h-25.178zm78.196 33.447h-28.995v-14.554h24.272v-6.667h-24.272v-12.069h28.549v9.356h6.536v-16.054h-51.161v6.541h9.131v33.575h-9.131v6.561h51.639v-16.713h-6.568zm69.33-16.649c0 5.776-1.736 10.035-5.316 13.012-3.605 2.999-9.164 4.52-16.514 4.52-7.371 0-12.963-1.523-16.617-4.522-3.615-2.974-5.367-7.232-5.367-13.009 0-5.715 1.758-9.954 5.375-12.96 3.652-3.034 9.24-4.57 16.609-4.57 7.355 0 12.91 1.521 16.512 4.515 3.582 2.983 5.318 7.242 5.318 13.014m-1.25-18.414c-2.627-1.966-5.758-3.435-9.291-4.367-3.484-.916-7.287-1.382-11.289-1.382-2.664 0-5.264.199-7.717.604-2.473.411-4.814 1.048-6.973 1.895-2.193.873-4.195 1.966-5.953 3.256-1.803 1.309-3.371 2.899-4.656 4.721-1.275 1.817-2.273 3.883-2.967 6.141-.699 2.26-1.053 4.796-1.053 7.547 0 4.134.768 7.777 2.285 10.829 1.518 3.044 3.646 5.595 6.33 7.589 2.625 1.958 5.771 3.427 9.352 4.36 3.498.923 7.32 1.389 11.352 1.389 4.012 0 7.811-.466 11.289-1.389 3.555-.934 6.682-2.404 9.291-4.36 2.658-1.994 4.777-4.545 6.291-7.592 1.52-3.041 2.287-6.688 2.287-10.826 0-4.143-.768-7.783-2.287-10.827-1.514-3.04-3.633-5.594-6.291-7.588"/><path d="M480.55 149.977l-24.851-38.34h-15.657v6.536h9.131v33.578h-9.131v6.561h25.176v-6.561h-9.099v-27.206l21.714 33.767h5.159l21.683-33.617v27.056h-9.127v6.561h25.176v-6.561h-9.133v-33.578h9.133v-6.536h-15.724zm76.367-13.085l8.738-16.718 8.771 16.718h-17.509zm11.995-25.255h-21.027v6.539h11.09l-17.535 33.575h-8.98v6.563h25.18v-6.563h-8.547l4.328-8.291h24.498l4.264 8.291h-8.498v6.563h25.209v-6.563h-8.984l-20.998-40.114zm79.964 0v6.539h9.131v29.924l-35.81-36.463h-15.598v6.539h9.131v33.575h-9.131v6.564h25.182v-6.564h-9.102v-29.785l35.809 36.349h6.469v-40.139h9.093v-6.539z"/></g><path fill="#020202" d="M118.648 235.019c-54.691 0-99.186-44.88-99.186-100.045 0-55.163 44.494-100.041 99.186-100.041s99.186 44.878 99.186 100.041c-.001 55.165-44.495 100.045-99.186 100.045zm0-195.086c-51.934 0-94.186 42.635-94.186 95.041 0 52.408 42.252 95.045 94.186 95.045 51.935 0 94.186-42.637 94.186-95.045-.001-52.406-42.251-95.041-94.186-95.041z"/><defs><path id="c" d="M172.771 54.14v-.256l5.643-28.209s-12.537-28.838-54.539-25.389c-42 3.447-47.328 13.164-54.225 24.762l4.074 18.492-7.836 5.016s-2.82-8.463-7.209-8.776c0 0 6.582-9.403 1.881-15.985s-29.777-5.956-39.494 27.27c0 0-1.252-10.03-5.328-10.03-4.074 0-19.119 5.329-15.045 21.001s18.18 20.373 22.881 22.254c0 0 2.193 2.82 1.254 6.582-.494 1.975-11.867 37.133-2.367 69.633 7.094 24.27 29.773 45.357 29.773 45.357 17.322 16.523 40.693 26.658 66.414 26.658 53.395 0 96.686-43.67 96.686-97.545-.001-33.637-16.881-63.299-42.563-80.835z"/></defs><clipPath id="d"><use xlink:href="#c" overflow="visible"/></clipPath><g clip-path="url(#d)"><path fill="#050505" d="M152.747 170.529s70.272 11.314 78.014 109.576c0 0-13.103 8.338-26.799 8.934-.001 0 1.191-75.631-51.215-118.51z"/><path fill="#DD002A" d="M193.838 231.99c.55 1.59 1.067 3.17 1.56 4.734 4.617-.469 14.965-1.93 24.133-6.082-.641-1.537-1.301-3.027-1.977-4.486-3.371 1.552-10.845 4.312-23.716 5.834z"/><circle fill="#F4CF8C" cx="80.256" cy="96.111" r="15.072"/><circle fill="#F4CF8C" cx="80.256" cy="96.111" r="15.072"/><path fill="#F4CF8C" d="M65.184 96.111c0 .463.024.92.065 1.372 1.074-.456 2.219-1.05 3.439-1.831 7.142-4.562 7.354-10.004 5.758-13.451-5.439 2.273-9.262 7.644-9.262 13.91z"/><circle fill="#F4CF8C" cx="72.47" cy="96.111" r="7.286"/><path fill="#D8AF6F" d="M72.47 88.826c-.297 0-.586.021-.872.057 2.84.432 5.042 3.5 5.042 7.229s-2.202 6.797-5.042 7.229c.286.034.575.057.872.057 4.022 0 7.285-3.262 7.285-7.285s-3.262-7.287-7.285-7.287z"/><path fill="#F4CF8C" d="M71.598 88.882c-.226-.035-.453-.057-.686-.057-3.164 0-5.729 3.262-5.729 7.285.001-3.728 2.803-6.796 6.415-7.228zm-6.414 7.229c0 4.023 2.564 7.285 5.729 7.285.232 0 .46-.022.686-.057-3.613-.431-6.415-3.5-6.415-7.228z"/><circle fill="#F4CF8C" cx="168.463" cy="96.111" r="15.073"/><circle fill="#F4CF8C" cx="168.463" cy="96.111" r="15.073"/><circle fill="#F4CF8C" cx="176.25" cy="96.111" r="7.286"/><path fill="#D8AF6F" d="M172.08 96.111c0-3.729 2.201-6.797 5.041-7.229-.285-.035-.576-.057-.871-.057-4.025 0-7.285 3.262-7.285 7.285s3.26 7.285 7.285 7.285c.295 0 .586-.022.871-.057-2.84-.43-5.041-3.499-5.041-7.227z"/><path fill="#F4CF8C" d="M183.537 96.111c0-4.023-2.566-7.285-5.729-7.285-.234 0-.462.021-.688.057 3.614.431 6.417 3.499 6.417 7.228zm-6.416 7.228c.226.034.453.057.688.057 3.162 0 5.729-3.262 5.729-7.285-.001 3.728-2.804 6.797-6.417 7.228zm-138.969 2.401s14.375 1.876 12.5-12.499c0 0 5 7.812 16.25.624 11.25-7.187 5.312-16.562 2.188-16.873-3.125-.313-7.5-3.752-18.438 7.499l-6.25-14.374 7.188-9.376s.987 13.542 11.432 9.739c10.443-3.801 2.631-26.927-6.744-26.927l-16.876 9.687s3.125-8.748 16.875-15.936c0 0 5.312-3.125 2.188-10.938s-32.812-2.188-37.5 35.937c0 0-5.312-5-4.062-12.812s-15.314-5.625-12.189 11.25c3.125 16.876 19.376 20.311 19.376 20.311s5.517 8.927 1.562 19.062c0 .001 6.25 7.814 12.5 5.626zm28.75-11.875c11.25-7.187 5.312-16.562 2.188-16.873-1.921-.193-4.318-1.562-8.418.023l3.683 7.585s-.757 10.849-12.866 8.073c0 0-.128.427-.444 1.076 1.371 1.61 6.409 6.153 15.857.116zm-16.145.433c-1.873 3.359-8.365 9.812-23.969 1.768-.297 1.406-.578 2.656-1.137 4.049 0 0 6.25 7.813 12.5 5.625.001 0 13.647 1.774 12.606-11.442zm.832-33.557s.987 13.542 11.432 9.739c4.27-1.555 5.487-6.34 4.794-11.455-2.606 2.697-10.653 9.541-13.805-4.954l-14.382 16.652-11.354 6.56 14.129-3.532 8.248 10.74-6.25-14.374 7.188-9.376zm-9.835-11.563c2.327-3.201 6.708-7.79 14.522-11.874 0 0 5.312-3.125 2.188-10.938-.054-.135-.117-.264-.186-.389-.742 2.363-2.189 5.18-5.025 7.152-5.803 4.037-26.492 18.417-19.932 40.115.001.002-2.654-13.424 8.433-24.066zm-21.086 12.819c-1.098-1.19-4.837-5.815-3.767-12.506.494-3.086-1.795-4.604-4.549-4.28-.49 8.401.668 25.426 17.184 30.306.001-.001-6.255-2.974-8.868-13.52z"/><path fill="#050505" d="M25.652 100.115l12.5 5.625s-11.25 61.875 47.5 64.375c0 0 .414 39.797-35.836 39.174 0 0-47.91-38.057-24.164-109.174z"/><path fill="#DD002A" d="M40.626 139.4c-.191-.566-.371-1.135-.543-1.703l-.01-.033c-2.777 1.439-10.247 4.67-20.959 4.564.049 1.381.13 2.736.232 4.076 5.38.016 14.254-.711 21.997-4.887l-.016-.043c-.223-.584-.431-1.17-.63-1.758l-.071-.216zm3.961 8.865c-.295-.514-.579-1.031-.853-1.553l-.004-.006c-3.2 1.516-12.116 5.143-23.808 5.152.204 1.537.443 3.045.712 4.523 6.36.006 15.767-1.123 24.961-6.447l-.026-.043c-.322-.506-.63-1.018-.928-1.533l-.054-.093zm-18.935-48.15c-3.394 9.298-4.824 17.829-5.949 25.83 5.943 1.146 11.942 1.254 17.811-2.539-.748-10.02.639-17.666.639-17.666l-12.501-5.625z"/><path fill="#050505" d="M159.607 168.544h-70.494c-75.036 32.951-57.567 157.219-57.567 157.219h93.299v-56.826l5.161 56.826h87.168c-.001 0 17.469-124.267-57.567-157.219z"/><path fill="#930023" d="M222.833 284.201c-1.055-26.695-6.416-61.053-24.402-86.768-21.543-23.008-45.685-26.904-45.685-26.904 52.406 42.879 51.215 118.51 51.215 118.51 7.006-.305 13.851-2.635 18.872-4.838z"/><path fill="#DD002A" d="M34.581 245.972c-.243 1.143-.476 2.287-.696 3.428 20.736-7.637 53.545-12.57 90.476-12.57 36.932 0 69.739 4.934 90.476 12.57-.221-1.141-.453-2.285-.697-3.428-20.77-7.494-53.258-12.318-89.778-12.318s-69.011 4.824-89.781 12.318zm4.108-15.693c-.324 1.027-.638 2.059-.94 3.088 20.826-6.865 51.896-11.225 86.611-11.225s65.784 4.359 86.61 11.225c-.301-1.029-.615-2.061-.939-3.088-20.816-6.689-51.479-10.918-85.671-10.918-34.194 0-64.855 4.228-85.671 10.918zm29.166-48.094c-16.068 20.713-14.336 45.91-14.336 45.91l4.368-1.984c-1.374-21.98 8.659-39.393 14.97-48.037-1.733 1.314-3.4 2.685-5.002 4.111zm108.008-4.111c6.311 8.645 16.344 26.057 14.971 48.037l4.366 1.984s1.733-25.197-14.335-45.908c-1.601-1.428-3.268-2.799-5.002-4.113z"/><path fill="#F4CF8C" d="M163.347 165.955s-14.984 13.652-39.624 13.652c-29.302 0-38.351-13.652-38.351-13.652l-5.187-95.475h88.35l-5.188 95.475zm0 0s-14.984 13.652-39.624 13.652c-29.302 0-38.351-13.652-38.351-13.652l-5.187-95.475h88.35l-5.188 95.475zm0 0s-14.984 13.652-39.624 13.652c-29.302 0-38.351-13.652-38.351-13.652l-5.187-95.475h88.35l-5.188 95.475z"/><path fill="#B27D30" d="M135.577 86.757l2.183-2.777s7.94-.398 20.149 6.152c0 0-8.835-10.918-22.136-7.246l.398-2.382-3.771 6.154s1.389 8.237-.099 14.193h-15.882c-1.49-5.956-.1-14.193-.1-14.193l-3.771-6.154.396 2.382c-13.299-3.672-22.133 7.246-22.133 7.246 12.208-6.551 20.148-6.152 20.148-6.152l2.184 2.777c-4.269 8.536-14.293 9.23-14.293 9.23 10.521 1.093 14.393-5.458 14.393-5.458-.596 5.161.496 11.956.496 11.956l10.57 7.448.05-.05.05.05 10.57-7.448s1.092-6.795.496-11.956c0 0 3.871 6.551 14.393 5.458.001.001-10.025-.694-14.291-9.23z"/><ellipse fill="#050505" cx="124.36" cy="117.675" rx="14.491" ry="8.686"/><path fill="#DD002A" d="M124.36 126.796c3.279 0 6.303-1.088 8.731-2.189-1.701-1.84-4.974-3.088-8.731-3.088-3.759 0-7.03 1.248-8.731 3.088 2.427 1.101 5.452 2.189 8.731 2.189z"/><path fill="#fff" d="M124.36 108.991c-8.003 0-14.491 3.889-14.491 8.685 0 .251.021.498.057.745h28.869c.035-.247.057-.494.057-.745-.001-4.797-6.489-8.685-14.492-8.685z"/><path fill="#C98C28" d="M124.36 132.017c-2.94 0-5.676-.525-7.96-1.428 1.83 2.373 4.711 3.91 7.96 3.91s6.129-1.537 7.96-3.91c-2.283.903-5.02 1.428-7.96 1.428zm0 25.834c-5.024 0-9.696-.9-13.599-2.443 3.13 4.055 8.049 6.678 13.599 6.678s10.468-2.623 13.598-6.678c-3.904 1.543-8.576 2.443-13.598 2.443z"/><path fill="#CEA063" d="M81.037 86.16h86.645l.853-15.68h-88.35z"/><path fill="#050505" d="M168.728 70.48l7.752-44.809s-11.689-22.943-51.863-22.943c-48.834 0-52.377 22.943-52.377 22.943l7.751 44.809h88.737z"/><path fill="#DD002A" d="M76.667 51.263l3.324 19.217h88.739l3.323-19.217z"/><path fill="#050505" d="M182.126 81.199h-115.533l-3.572-10.719h122.678z"/><circle fill="#050505" cx="124.36" cy="57.406" r="14.286"/><path fill="#DD002A" d="M124.36 69.944c-6.915 0-12.54-5.624-12.54-12.534 0-6.916 5.625-12.541 12.54-12.541s12.54 5.625 12.54 12.541c0 6.91-5.625 12.534-12.54 12.534zm0-23.437c-6.011 0-10.901 4.891-10.901 10.902 0 6.008 4.891 10.895 10.901 10.895s10.901-4.887 10.901-10.895c0-6.011-4.89-10.902-10.901-10.902zm0 19.95c-4.991 0-9.053-4.059-9.053-9.049 0-4.991 4.062-9.053 9.053-9.053s9.053 4.062 9.053 9.053c0 4.99-4.062 9.049-9.053 9.049zm0-16.918c-4.339 0-7.87 3.53-7.87 7.869 0 4.337 3.531 7.865 7.87 7.865s7.869-3.528 7.869-7.865c0-4.339-3.53-7.869-7.869-7.869zm2.265 4.693l4.118-2.973-3.124 4.004 4.913-1.285-4.361 2.605 5.046.578-5.007.856 4.498 2.36-4.978-1.012 3.34 3.826-4.274-2.742 1.732 4.774-2.997-4.1-.11 5.077-1.312-4.908-1.936 4.698.549-5.051-3.502 3.679 2.334-4.509-4.595 2.166 3.81-3.363-5.066.36 4.763-1.759-4.853-1.496 5.078.08-3.986-3.147 4.707 1.911-2.581-4.375 3.7 3.48-.827-5.011 2.192 4.582 1.041-4.972.389 5.063 2.765-4.258z"/><path fill="#050505" d="M127.065 57.408c0 1.49-1.212 2.703-2.706 2.703-1.492 0-2.704-1.213-2.704-2.703 0-1.496 1.212-2.706 2.704-2.706 1.494 0 2.706 1.21 2.706 2.706z"/><path fill="#DD002A" d="M123.723 179.607c-29.288 0-38.342-13.639-38.351-13.652l1.053 19.381s8.804 13.283 37.315 13.283c23.973 0 38.552-13.283 38.552-13.283l1.054-19.381c-.016.015-14.997 13.652-39.623 13.652z"/><path fill="#050505" d="M124.358 198.369c.714-2.52 1.146-5.764 1.146-9.305s-.432-6.785-1.146-9.305c-.712 2.52-1.143 5.764-1.143 9.305s.431 6.785 1.143 9.305z"/><circle fill="#930023" cx="131.296" cy="189.66" r="2.68"/><circle fill="#fff" cx="130.7" cy="189.064" r="2.68"/><path fill="#FFB000" d="M133.843 215.753h-18.967c-3.01 0-5.458 2.449-5.458 5.459v13.494c0 3.01 2.448 5.459 5.458 5.459h18.967c3.01 0 5.457-2.449 5.457-5.459v-13.494c0-3.009-2.447-5.459-5.457-5.459zm-1.477 7.575v9.264c0 .553-.45 1.002-1 1.002h-14.011c-.553 0-1.001-.449-1.001-1.002v-9.264c0-.553.448-1.002 1.001-1.002h14.011c.55 0 1 .449 1 1.002z"/><path fill="#C98C28" d="M113.824 102.546l10.486 7.388.05-.05.05.05 10.486-7.388z"/><path d="M124.359 108.296s-8.834-10.521-29.578-5.359c-20.744 5.16-31.363 30.867-31.363 30.867s11.314 8.438 28.981 6.154c17.667-2.281 32.059-21.141 31.96-31.662zm.001 0s8.833-10.521 29.577-5.359c20.744 5.16 31.365 30.867 31.365 30.867s-11.314 8.438-28.982 6.154c-17.668-2.281-32.059-21.141-31.96-31.662z" fill="#4F1907"/><path fill="#DD002A" d="M167.351 198.519h1.832l-3.221 3.992-3.251-3.992h1.845v-1.803h-6.941v1.803h2.75l4.635 5.699v3.561h-2.693v1.808h7.303v-1.808h-2.694v-3.561l4.634-5.699h2.742v-1.803h-6.941z"/></g></svg>